<?xml version="1.0" encoding="UTF-8"?>
<svg width="84px" height="86px" viewBox="0 0 84 86" version="1.1" xmlns="http://www.w3.org/2000/svg" xmlns:xlink="http://www.w3.org/1999/xlink">
    <title>GMP</title>
    <g id="Page-1" stroke="none" stroke-width="1" fill="none" fill-rule="evenodd">
        <g id="GMP">
            <circle id="Oval" fill="#FFFFFF" cx="41.5" cy="43.7" r="41.5"></circle>
            <path d="M65.6,75.3 L65.1,75.2 L64.9,75.1 C64.7,75.1 64.4,75 64.2,75 L64.1,75 C64.8,74.5 65.5,73.9 66.2,73.4 C67.5,72.3 68.5,72.4 69.7,72.5 L71.7,72.5 C71,73.2 70.3,73.9 69.6,74.5 C68.8,75.2 68.1,75.5 67.5,75.5 L66.9,75.5 C66.5,75.5 66.1,75.4 65.7,75.3 L65.6,75.3 L65.6,75.3 Z M60.3,78.2 L60.2,78.2 C60,78.1 59.7,78 59.5,78 L59.4,78 C60.2,77.6 61,77.1 61.7,76.7 C62.1,76.5 62.4,76.4 62.7,76.3 C63.8,76 64.6,76.2 65.6,76.5 C65.8,76.6 66.1,76.6 66.3,76.6 L66.5,76.6 C66.8,76.6 67,76.7 67.3,76.7 C66.5,77.3 65.8,77.9 65,78.4 C64.4,78.8 64,78.9 63.6,79 C63.1,79.1 62.6,79.1 62.1,78.9 C61.8,78.8 61.4,78.7 61,78.5 L60.3,78.2 L60.3,78.2 Z M55.2,80.5 L55.1,80.4 C54.9,80.3 54.6,80.2 54.4,80.1 C55.3,79.8 56.1,79.5 56.9,79.1 C57,79.1 57.1,79 57.2,79 L57.4,78.9 L57.6,78.9 C57.7,78.9 57.8,78.8 57.9,78.8 L58.8,78.8 C59.5,78.9 60.2,79.1 60.9,79.4 L61.1,79.5 L61.6,79.7 L61.8,79.8 C62,79.9 62.3,79.9 62.5,80 C61.7,80.5 60.8,80.9 59.9,81.4 C59.7,81.5 59.5,81.6 59.3,81.6 L59.2,81.6 C57.9,82 57.2,81.5 56,80.9 L55.2,80.5 L55.2,80.5 Z M50.1,82.3 L49.9,82.2 L49.7,82 C49.5,81.9 49.3,81.7 49.1,81.6 L49,81.6 C49.9,81.4 50.8,81.2 51.6,81 C52.1,80.9 52.5,80.8 52.9,80.9 C53.5,80.9 54,81.1 54.4,81.3 C54.7,81.5 55,81.7 55.4,81.8 L55.5,81.9 L56,82.2 L56.2,82.3 C56.4,82.4 56.7,82.5 56.9,82.6 C56,83 55.1,83.3 54.2,83.6 C53.3,83.9 52.6,83.9 52.1,83.7 C51.5,83.5 51,83.1 50.3,82.6 L50.1,82.3 L50.1,82.3 Z M43.5,82.2 C44.4,82.1 45.3,82.1 46.2,82 C47.1,81.9 47.8,82 48.3,82.3 C48.5,82.4 48.6,82.5 48.8,82.6 C49,82.7 49.2,82.8 49.3,83 L49.4,83.1 L49.9,83.4 L50.5,83.8 L50.7,83.9 C50.9,84 51.1,84.2 51.4,84.3 C50.5,84.5 49.5,84.7 48.6,84.9 C46.6,85.2 46,84.5 44.9,83.4 C44.4,83 44,82.6 43.5,82.2 M78.5,29.5 L78.3,29.9 L78.2,30.1 C78.1,30.3 78,30.5 77.9,30.8 L77.9,30.9 C77.6,30.1 77.3,29.2 76.9,28.4 C76.6,27.6 76.5,27.1 76.6,26.5 C76.6,26 76.8,25.6 76.9,25.1 L77.1,24.4 L77.2,24.2 L77.4,23.7 L77.5,23.5 C77.6,23.3 77.6,23 77.7,22.8 C78.2,23.6 78.6,24.5 79.1,25.3 L79.2,25.5 C79.7,26.7 79.6,27.4 79.3,28.2 C79.2,28.5 79,28.9 78.8,29.3 L78.5,29.5 L78.5,29.5 Z M79.9,35.3 L79.8,35.5 C79.7,35.7 79.5,35.9 79.4,36.1 L79.4,36.2 C79.2,35.3 79,34.4 78.8,33.6 C78.8,33.5 78.7,33.3 78.7,33.2 C78.7,33.1 78.7,33 78.6,32.9 L78.6,32.5 L78.6,32.3 C78.6,31.9 78.7,31.6 78.8,31.3 C78.9,30.9 79.2,30.5 79.4,30.1 L79.6,29.7 C79.7,29.5 79.8,29.3 79.9,29 L80,28.9 C80.1,28.7 80.2,28.4 80.3,28.2 C80.7,29.1 81,30 81.3,30.9 C81.6,31.9 81.6,32.5 81.4,33.1 C81.2,33.7 80.8,34.2 80.4,34.8 L79.9,35.3 L79.9,35.3 Z M81,40.6 L80.7,40.9 L80.6,41 C80.4,41.2 80.3,41.4 80.1,41.6 C80,40.7 80,39.8 79.9,38.9 L79.9,38 C79.9,37.3 80.2,36.8 80.5,36.3 C80.7,35.9 81,35.6 81.3,35.2 L81.5,35 L81.7,34.7 L81.9,34.4 C82,34.2 82.2,34 82.3,33.8 C82.5,34.7 82.7,35.7 82.9,36.6 C83.2,38.6 82.5,39.2 81.4,40.3 L81,40.6 L81,40.6 Z M80.7,46.5 L80.6,46.6 C80.4,46.8 80.2,46.9 80,47.1 C80.1,46.2 80.1,45.3 80.1,44.4 C80.1,43.6 80.3,43.1 80.5,42.6 C80.9,42 81.4,41.5 81.9,40.9 L82.4,40.4 L82.5,40.3 C82.7,40.1 82.8,39.9 83,39.7 C83.1,40.7 83.2,41.6 83.2,42.6 C83.2,43.3 83.1,43.9 82.9,44.3 C82.6,45 82,45.5 81.2,46.1 L80.7,46.5 L80.7,46.5 Z M80.5,51.8 L80,52 L79.8,52.1 C79.6,52.2 79.4,52.3 79.2,52.5 L79.1,52.5 C79.3,51.6 79.5,50.7 79.6,49.9 L79.7,49.6 L79.7,49.4 L79.8,49.2 C79.8,49.1 79.9,49 79.9,48.9 L79.9,48.8 C80.1,48.3 80.4,47.9 80.7,47.6 C80.9,47.4 81.1,47.3 81.3,47.1 L81.9,46.6 L82.4,46.2 L82.6,46 C82.8,45.8 83,45.7 83.2,45.5 C83.2,46.5 83.1,47.4 83,48.4 C82.7,50.6 81.9,50.9 80.5,51.8 L80.5,51.8 Z M78.3,57.5 L78.2,57.5 C78,57.6 77.7,57.7 77.5,57.8 C77.8,57 78.1,56.1 78.4,55.3 C78.5,55.2 78.5,55 78.6,54.9 C78.6,54.8 78.6,54.8 78.7,54.7 L78.7,54.6 C79.1,53.8 79.7,53.3 80.3,53 L81.2,52.5 L81.9,52.1 L82,52 C82.2,51.9 82.5,51.7 82.7,51.5 C82.5,52.5 82.3,53.4 82.1,54.3 C81.5,56.3 80.6,56.5 79.2,57.1 L78.3,57.5 L78.3,57.5 Z M76.6,62.5 L76,62.6 L75.8,62.6 C75.6,62.7 75.3,62.7 75.1,62.8 L75,62.8 C75.4,62 75.9,61.2 76.3,60.4 C76.7,59.6 77.1,59.2 77.6,58.9 L77.7,58.8 C78.2,58.5 78.8,58.3 79.4,58.1 L80,57.9 L80.2,57.8 C80.4,57.7 80.7,57.6 80.9,57.5 C80.6,58.4 80.2,59.3 79.9,60.2 L79.6,60.8 C78.9,62 78,62.1 76.6,62.5 L76.6,62.5 Z M73,67.3 L72.8,67.3 C72.6,67.3 72.3,67.4 72,67.4 L71.9,67.4 C72.5,66.7 73,66 73.5,65.2 C73.6,65.1 73.7,65 73.7,64.9 L73.9,64.7 L74.1,64.5 L74.3,64.3 L74.4,64.2 C74.5,64.1 74.6,64.1 74.7,64 L74.8,64 C75,63.9 75.3,63.7 75.6,63.7 C76,63.6 76.5,63.5 77,63.4 C77.2,63.4 77.5,63.3 77.7,63.2 L77.9,63.2 C78.2,63.1 78.4,63.1 78.7,63 C78.3,63.9 77.8,64.7 77.3,65.5 C76.4,66.9 75.6,67.1 74.5,67.3 L73.7,67.4 L73,67.3 L73,67.3 Z M69.3,71.5 L68.2,71.5 L70.1,69.6 C70.8,68.8 71.5,68.5 72.2,68.4 C72.7,68.3 73.2,68.3 73.8,68.2 L74.5,68.1 L74.7,68.1 C75,68.1 75.2,68 75.5,68 C74.9,68.8 74.3,69.5 73.7,70.3 C72.4,71.8 71.5,71.7 69.9,71.6 L69.3,71.5 L69.3,71.5 Z M71.9,26.7 L72.1,26.7 L72.6,26.8 L72.8,26.8 C73.1,26.9 73.4,26.9 73.7,27 C74.6,27.2 75.3,27.6 75.9,28.8 C76.3,29.6 76.6,30.4 76.9,31.2 L76.8,31.2 C76.6,31.1 76.4,31 76.1,30.9 L75.9,30.8 L75.5,30.7 L75.3,30.6 C73.9,30.1 73,30.1 72.3,28.6 C71.9,27.9 71.6,27.2 71.2,26.5 C71.5,26.6 71.7,26.6 71.9,26.7 M74.1,31.2 L74.2,31.2 L74.9,31.4 C76.1,31.8 77.2,32.1 77.7,33.8 C77.9,34.6 78.1,35.5 78.3,36.3 C78.1,36.2 77.9,36 77.7,35.9 L77.5,35.8 L77,35.6 L76.9,35.6 C76.2,35.3 75.7,35.1 75.3,34.8 C75.3,34.8 75.2,34.8 75.2,34.7 C74.8,34.4 74.5,34 74.2,33.2 C74,32.4 73.7,31.7 73.4,31 C73.6,31 73.8,31.1 74.1,31.2 M75.5,35.9 L75.8,36 L76,36.1 L76.3,36.2 C77.1,36.6 77.7,36.9 78.2,37.5 C78.4,37.8 78.6,38.1 78.7,38.5 C78.7,38.6 78.8,38.8 78.8,38.9 C78.9,39.8 79,40.6 79,41.5 C78.8,41.3 78.6,41.2 78.4,41 L78.3,40.9 L77.8,40.5 C76.5,39.7 75.8,39.4 75.5,37.7 C75.4,36.9 75.2,36.1 75,35.4 C75.1,35.7 75.3,35.8 75.5,35.9 M64.9,11.7 L64.9,12.5 C64.9,12.7 65,13 65,13.3 L65,13.4 C64.3,12.9 63.6,12.3 62.8,11.8 C62,11.3 61.6,10.8 61.4,10.2 L61.3,10 C61.2,9.9 61.2,9.7 61.2,9.6 C61.1,9.4 61.1,9.2 61.1,9 L61,8.4 C60.9,7.9 60.8,7.3 60.5,6.8 C61.3,7.1 62.2,7.5 63,8 C63.6,8.4 64,8.8 64.3,9.2 C64.7,9.9 64.8,10.6 64.9,11.7 L64.9,11.7 Z M69.2,15.5 L69.2,17 L67.3,15.1 C66.7,14.6 66.4,14 66.2,13.5 C66,13.1 66,12.6 66,12.1 L65.9,11.4 L65.9,10.4 C65.9,10.1 65.8,9.9 65.8,9.6 C66.6,10.2 67.4,10.7 68.1,11.3 L68.2,11.4 C69.2,12.3 69.4,13 69.4,13.8 L69.4,15 L69.2,15.5 Z M72.9,20.1 L72.9,20.3 C72.9,20.5 72.8,20.8 72.8,21 L72.8,21.1 C72.3,20.4 71.7,19.7 71.1,19 C71,18.9 70.9,18.8 70.9,18.7 L70.7,18.5 C70.6,18.4 70.6,18.3 70.5,18.1 L70.4,18 C70.3,17.7 70.2,17.3 70.2,17 L70.2,14.3 L70.2,13.5 C70.9,14.2 71.6,14.8 72.2,15.6 C72.9,16.4 73.1,17 73.2,17.6 C73.3,18.2 73.1,18.8 73,19.6 L72.9,20.1 Z M76.1,24.5 L76,24.8 L75.9,25 C75.8,25.2 75.7,25.5 75.7,25.7 L75.7,25.8 C75.3,25 74.8,24.2 74.4,23.5 C74.2,23.2 74.1,23 74,22.7 C73.7,22 73.7,21.5 73.8,20.9 C73.9,20.5 74,20.1 74.1,19.6 L74.2,19.3 L74.3,19 L74.3,18.7 C74.3,18.5 74.4,18.2 74.4,18 C75,18.8 75.6,19.5 76.1,20.3 C77.2,22 76.8,22.8 76.3,24.3 L76.1,24.5 L76.1,24.5 Z M60.6,10.7 C60.6,10.8 60.7,10.9 60.7,11 C60.6,11 60.5,11 60.4,11.1 L60.2,11.1 C59.1,11.2 57.9,11 56.6,10.5 L56.5,10.4 C55.9,10.1 55.4,9.8 55,9.4 C54.7,9.1 54.3,8.8 54.1,8.5 C53.9,8.2 53.7,8 53.6,7.7 C53.9,7.6 54.2,7.5 54.6,7.4 C55,7.3 55.4,7.3 55.9,7.3 C56.5,7.3 57.2,7.5 57.8,7.8 L57.9,7.9 C59.3,8.5 60.2,9.5 60.7,10.5 L60.6,10.7 L60.6,10.7 Z M58.5,12.6 L59.1,12.3 C59.3,12.2 59.5,12.2 59.6,12.1 C59.7,12.1 59.9,12 60,12 L60.2,12 C60.8,11.9 61.4,12 62.2,12.5 L64.3,14 C64,14 63.8,14.1 63.5,14.1 L63.4,14.1 C63.2,14.2 63,14.2 62.8,14.3 C62.1,14.5 61.6,14.7 61.1,14.7 L60.9,14.7 C60.4,14.7 59.9,14.6 59.2,14.2 L57.1,13 C57.6,13.1 58.1,12.8 58.5,12.6 M62,15.6 L62.2,15.5 L62.7,15.4 L62.9,15.4 C63.2,15.3 63.5,15.2 63.8,15.2 C64.7,15 65.5,15 66.5,15.9 C67.2,16.5 67.8,17.1 68.4,17.7 L66.7,17.7 C65.2,17.9 64.4,18.2 63.1,17.1 C62.5,16.6 61.9,16.1 61.2,15.7 C61.6,15.7 61.8,15.7 62,15.6 M65.9,18.8 L66.1,18.8 L66.8,18.7 C68.1,18.6 69.2,18.3 70.4,19.7 C71,20.4 71.5,21.1 72,21.8 L71.9,21.8 C71.7,21.8 71.4,21.7 71.2,21.7 L70.4,21.7 C69.7,21.7 69.1,21.7 68.5,21.6 L68.4,21.6 C67.9,21.5 67.5,21.2 66.9,20.6 C66.4,20 65.8,19.5 65.2,18.9 C65.4,18.9 65.6,18.8 65.9,18.8 M69.1,22.5 L70,22.5 C70.8,22.5 71.6,22.5 72.3,22.9 C72.6,23.1 72.9,23.3 73.1,23.6 C73.2,23.7 73.3,23.8 73.4,24 C73.9,24.7 74.3,25.5 74.7,26.3 C74.5,26.2 74.2,26.1 74,26.1 L73.8,26.1 L73.1,26 C71.6,25.8 70.8,25.8 69.8,24.5 C69.3,23.8 68.9,23.2 68.4,22.6 C68.7,22.5 68.9,22.5 69.1,22.5 M76.3,40.9 L76.4,41 L77,41.4 C77.8,42 78.5,42.4 78.9,43.4 C79,43.7 79.1,44.1 79.1,44.5 C79.1,45.4 79,46.2 79,47.1 C78.8,46.9 78.7,46.7 78.5,46.6 L78.3,46.5 L77.8,46.1 C76.7,45.1 76,44.7 75.9,43 C75.9,42.2 75.8,41.4 75.8,40.6 C75.9,40.6 76.1,40.7 76.3,40.9 M76.4,45.9 L76.5,46 L77,46.4 C77.2,46.6 77.5,46.8 77.7,47 C78.3,47.6 78.8,48.4 78.6,49.7 C78.5,50.6 78.3,51.4 78.1,52.3 C78,52.1 77.8,51.9 77.7,51.7 L77.6,51.6 L77.2,51.1 C76.7,50.5 76.3,50.1 76,49.6 C75.7,49.1 75.6,48.6 75.7,47.8 C75.8,47 75.9,46.2 75.9,45.4 L76.4,45.9 M75.8,50.9 L76.2,51.4 L76.4,51.6 C76.9,52.3 77.4,52.9 77.4,53.8 L77.4,54.4 C77.4,54.5 77.4,54.7 77.3,54.8 C77,55.6 76.7,56.5 76.4,57.3 C76.3,57.1 76.2,56.8 76.1,56.6 L76,56.5 L75.7,55.9 C75.4,55.4 75.2,55.1 75,54.7 C74.6,54.1 74.5,53.4 74.8,52.4 C75,51.6 75.2,50.9 75.3,50.1 C75.4,50.3 75.6,50.5 75.8,50.7 L75.8,50.9 L75.8,50.9 Z M74.4,55.6 L74.5,55.7 L74.9,56.3 C75.2,56.8 75.5,57.2 75.6,57.7 C75.8,58.3 75.9,59 75.4,60 C75,60.8 74.6,61.6 74.2,62.3 L74.2,62.2 C74.1,62 74.1,61.7 74,61.5 L73.9,61.3 L73.7,61 L73.6,60.8 C73,59.4 72.5,58.7 73.2,57.2 C73.5,56.5 73.8,55.7 74.1,55 C74.1,55.2 74.3,55.4 74.4,55.6 M72.4,60.2 L72.5,60.4 L72.7,60.9 L72.7,61 C73.2,62.2 73.7,63.2 72.7,64.7 L71.2,66.8 C71.2,66.5 71.1,66.3 71.1,66 L71.1,65.9 L70.9,65.2 C70.5,63.7 70.1,63 71,61.6 L72.2,59.5 C72.2,59.7 72.3,59.9 72.4,60.2 M69.7,64.4 L69.8,64.6 L70,65.2 L70.3,66.4 C70.4,67 70.4,67.7 69.9,68.4 C69.8,68.5 69.8,68.6 69.7,68.7 L69.5,68.9 C68.9,69.5 68.3,70.2 67.7,70.8 L67.7,69.8 L67.6,69.2 L67.5,68.4 C67.4,67.4 67.3,66.7 68.2,65.6 C68.7,65 69.2,64.4 69.6,63.7 C69.6,63.9 69.6,64.2 69.7,64.4 M66.5,68.2 L66.5,68.4 L66.6,69 L66.6,69.1 C66.7,69.8 66.8,70.5 66.6,71.2 C66.5,71.6 66.3,71.9 66,72.3 L65.6,72.7 C64.9,73.3 64.2,73.8 63.5,74.3 L63.5,74.2 C63.5,73.9 63.6,73.7 63.6,73.5 L63.6,71.7 C63.6,71.2 63.6,70.8 63.8,70.4 C64,70 64.2,69.6 64.7,69.2 C65.3,68.7 65.9,68.1 66.4,67.5 C66.4,67.7 66.4,67.9 66.5,68.2 M62.7,71.5 L62.7,72.4 C62.7,73.7 62.7,74.8 61.2,75.8 C60.5,76.3 59.7,76.7 58.9,77.1 L58.9,77 C59,76.8 59.1,76.5 59.1,76.3 L59.1,76.1 L59.2,75.4 L59.3,74.5 C59.4,73.5 59.7,72.9 60.7,72.1 C61.4,71.7 62,71.2 62.6,70.7 C62.7,71 62.7,71.2 62.7,71.5 M58.5,74.2 L58.5,74.4 L58.4,75.1 C58.2,76.1 58.1,77 57.2,77.7 C57,77.9 56.7,78.1 56.4,78.2 C55.6,78.5 54.8,78.9 54,79.2 C54.1,79 54.2,78.7 54.3,78.5 L54.4,78.3 L54.6,77.7 L54.7,77.4 C54.9,76.7 55.1,76.1 55.4,75.6 C55.7,75.3 56,75 56.6,74.7 C57.3,74.4 58,74 58.7,73.6 C58.6,73.7 58.6,74 58.5,74.2 M54,76.3 L54,76.5 L53.8,77.1 C53.4,78.3 53.1,79.4 51.4,79.9 C50.6,80.1 49.7,80.3 48.8,80.5 C48.9,80.3 49.1,80.1 49.2,79.9 L49.3,79.7 L49.5,79.3 L49.6,79.1 C50.3,77.7 50.4,76.9 52,76.4 C52.8,76.2 53.5,75.9 54.2,75.6 C54.2,75.9 54.1,76.1 54,76.3 M49.3,77.7 L49.1,78 L49,78.3 L48.9,78.6 L48.6,79.2 C48.5,79.4 48.4,79.6 48.3,79.7 C48.2,79.9 48.1,80 48,80.2 C47.8,80.4 47.6,80.6 47.3,80.8 L47.2,80.8 C47.1,80.9 46.9,80.9 46.8,81 L46.6,81 C46.5,81 46.4,81.1 46.2,81.1 C45.3,81.2 44.5,81.3 43.6,81.3 C44,80.9 44.3,80.4 44.6,80 C45.5,78.7 45.7,78 47.4,77.7 C48.2,77.6 49,77.4 49.7,77.2 C49.5,77.3 49.4,77.5 49.3,77.7 M19.7,72.7 L19.7,73.4 C19.7,73.6 19.7,73.9 19.8,74.1 L19.8,74.2 C19.1,73.7 18.4,73.1 17.7,72.6 C16.5,71.5 16.5,70.5 16.6,69.4 L16.6,69.1 L16.7,68.4 L16.7,68.3 C16.7,68.1 16.8,67.8 16.8,67.6 L18.5,69.3 C19.2,69.9 19.4,70.4 19.5,71 C19.5,71.2 19.5,71.4 19.6,71.5 L19.6,72.7 L19.7,72.7 L19.7,72.7 Z M24.1,76.1 L24.1,76.2 C24.2,76.4 24.2,76.7 24.3,76.9 L24.3,77 C23.5,76.6 22.8,76.2 22,75.7 C21.7,75.5 21.4,75.3 21.2,75 C20.5,74.2 20.5,73.3 20.5,72.3 L20.5,71.4 L20.5,70.7 C21.1,71.2 21.8,71.7 22.4,72.1 C22.8,72.4 23.1,72.7 23.3,73 C23.5,73.4 23.7,73.8 23.8,74.2 L24,75.3 L24.1,76.1 L24.1,76.1 Z M28.9,78.3 L28.9,78.4 C29,78.6 29.1,78.9 29.2,79.1 L26.8,78.2 C26.7,78.2 26.6,78.1 26.5,78.1 L26.4,78 C26.3,78 26.3,77.9 26.3,77.9 C26.2,77.8 26.1,77.8 26.1,77.7 L25.8,77.4 C25.7,77.3 25.6,77.2 25.6,77.1 C25.2,76.5 25.1,75.8 25,75.1 L25,74.9 L24.9,74.4 L24.9,74.2 C24.9,74 24.8,73.7 24.8,73.5 C25.5,73.9 26.2,74.3 26.9,74.6 C27.1,74.7 27.2,74.8 27.4,74.9 L27.5,75 C28.4,75.7 28.5,76.4 28.9,77.6 L28.9,78.3 L28.9,78.3 Z M33.8,79.4 L33.9,79.6 L34,79.9 C34.1,80.1 34.2,80.3 34.4,80.5 L34.4,80.6 C33.5,80.4 32.7,80.2 31.8,80 C31.3,79.9 30.9,79.7 30.7,79.4 C30.3,79.1 30,78.6 29.8,78.2 C29.7,77.9 29.6,77.5 29.4,77.2 L29.4,77.1 L29.2,76.6 L29.1,76.4 C29,76.2 29,76 28.9,75.7 C29.6,76 30.4,76.3 31.1,76.5 C31.8,76.7 32.3,77.1 32.6,77.4 C33,77.8 33.2,78.4 33.5,79.1 L33.8,79.4 Z M39.8,81.2 C38.9,81.2 38.1,81.1 37.2,81 C36.3,80.9 35.7,80.6 35.3,80.1 C35.2,80 35.1,79.8 35,79.6 C34.9,79.4 34.8,79.2 34.7,79.1 L34.7,79 L34.5,78.5 L34.2,77.9 L34,77.8 L33.7,77.2 C34.5,77.4 35.2,77.5 36,77.7 C37.6,78 37.9,78.7 38.8,80 C39.1,80.3 39.4,80.8 39.8,81.2 M7.7,30.7 L7.3,30.8 L7.1,30.9 C6.9,31 6.7,31.1 6.4,31.2 L6.3,31.2 C6.6,30.4 6.9,29.6 7.3,28.8 C7.6,28.1 8,27.7 8.5,27.4 C8.9,27.2 9.3,27.1 9.8,27 L10.5,26.9 L10.7,26.9 L11.2,26.8 L11.4,26.8 C11.6,26.8 11.9,26.7 12.1,26.7 C11.7,27.4 11.3,28.1 11,28.8 L10.9,28.9 C10.3,29.7 9.8,30 9,30.3 L7.9,30.6 L7.7,30.7 L7.7,30.7 Z M5.8,35.9 L5.6,36 C5.4,36.1 5.2,36.2 5,36.4 C5.2,35.5 5.4,34.7 5.6,33.9 C5.6,33.8 5.7,33.7 5.7,33.5 C5.7,33.4 5.8,33.3 5.8,33.3 C5.8,33.1 5.9,33 6,32.9 C6,32.9 6.1,32.8 6.1,32.7 C6.3,32.4 6.6,32.2 6.8,32 C7.2,31.8 7.6,31.6 8,31.5 L8.4,31.4 L9,31.2 L9.1,31.2 C9.3,31.1 9.6,31 9.8,31 C9.5,31.7 9.2,32.5 9,33.2 C8.7,34 8.4,34.4 8,34.8 C7.6,35.1 7,35.3 6.3,35.7 C6.2,35.7 6,35.8 5.8,35.9 M5.4,40.8 L5.1,41 L4.9,41.2 C4.7,41.3 4.5,41.5 4.3,41.7 C4.3,40.8 4.4,40 4.5,39.1 C4.5,38.8 4.6,38.5 4.7,38.3 C4.9,37.7 5.3,37.3 5.8,36.9 C6.1,36.7 6.5,36.5 6.9,36.3 L7.2,36.2 L7.5,36.1 L7.8,36 L8.4,35.7 C8.2,36.5 8,37.3 7.9,38 C7.6,39.6 6.8,39.9 5.6,40.8 L5.4,40.8 Z M5,46.4 L4.9,46.5 C4.7,46.7 4.6,46.9 4.4,47.1 C4.3,46.2 4.3,45.4 4.3,44.5 C4.3,43.7 4.5,43.2 4.8,42.8 C5.2,42.2 5.8,41.8 6.4,41.4 L6.8,41 L7,40.9 C7.2,40.8 7.4,40.6 7.6,40.5 C7.5,41.3 7.5,42.1 7.5,42.9 C7.5,43.5 7.4,44 7.2,44.3 C6.9,44.9 6.3,45.3 5.6,46 L5,46.4 L5,46.4 Z M6.1,51.1 L5.8,51.5 L5.6,51.7 C5.5,51.9 5.3,52.1 5.2,52.3 L5.2,52.4 C5,51.5 4.8,50.7 4.7,49.8 L4.7,49.1 L4.7,48.7 C4.8,48.2 5,47.8 5.2,47.4 C5.3,47.2 5.5,47 5.7,46.9 L6.3,46.4 L6.7,46 L6.9,45.8 L7.4,45.3 C7.4,46.1 7.5,46.9 7.6,47.7 C7.8,49.4 7.1,49.9 6.1,51.1 Z M7.2,56.7 C7,57 6.9,57.2 6.8,57.4 C6.5,56.6 6.2,55.8 5.9,54.9 C5.9,54.8 5.8,54.6 5.8,54.5 L5.8,54.2 C5.7,53.3 6,52.7 6.4,52.1 C6.6,52 6.8,51.7 7,51.5 L7.5,51 L7.6,50.9 C7.8,50.7 7.9,50.5 8.1,50.3 C8.2,51.1 8.4,51.9 8.6,52.6 C9,54.2 8.4,54.8 7.6,56.1 C7.4,56.2 7.3,56.4 7.2,56.7 M9.6,60.9 L9.4,61.4 L9.3,61.6 C9.2,61.8 9.1,62.1 9.1,62.3 L9.1,62.4 C8.7,61.6 8.3,60.9 7.9,60.1 C7.5,59.3 7.5,58.7 7.6,58.2 L7.6,58.1 C7.8,57.5 8.1,57.1 8.4,56.5 L8.7,56 L8.8,55.8 L9.2,55 C9.5,55.8 9.7,56.5 10.1,57.2 C10.2,57.4 10.2,57.6 10.3,57.7 C10.6,58.9 10.2,59.6 9.6,60.9 L9.6,60.9 Z M12.2,65.8 L12.2,66 C12.1,66.2 12.1,66.5 12.1,66.7 L12.1,66.8 L10.6,64.7 C10.5,64.6 10.5,64.5 10.4,64.4 C10.4,64.3 10.3,64.3 10.3,64.2 C10.3,64.1 10.2,64 10.2,64 C10.2,63.9 10.1,63.8 10.1,63.7 L10.1,63.5 L10.1,63.1 C10.1,62.8 10.1,62.6 10.2,62.3 C10.3,61.9 10.5,61.5 10.7,61 L11,60.4 L11.1,60.2 C11.2,60 11.3,59.7 11.4,59.5 L12.6,61.6 C13.3,62.8 13.2,63.5 12.9,64.5 L12.7,65.2 L12.2,65.8 L12.2,65.8 Z M15.7,69.8 L15.7,70.9 C15.1,70.3 14.5,69.7 13.9,69 C13.2,68.2 13.1,67.5 13.1,66.8 C13.1,66.3 13.3,65.8 13.4,65.3 L13.6,64.7 L13.7,64.5 C13.8,64.3 13.8,64 13.9,63.8 C14.4,64.4 14.8,65.1 15.3,65.7 C16.4,67 16.1,67.8 15.9,69.3 L15.7,69.8 L15.7,69.8 Z M5.8,23.6 L5.9,23.8 L6.1,24.3 L6.2,24.5 L6.5,25.5 C6.8,26.4 6.9,27.2 6.4,28.5 C6,29.3 5.7,30.2 5.4,31 L5.4,30.9 C5.3,30.7 5.2,30.4 5.1,30.2 L5,30 L4.8,29.7 L4.7,29.5 C4,28.1 3.5,27.3 4.3,25.5 C4.7,24.6 5.2,23.8 5.7,23 C5.7,23.1 5.8,23.3 5.8,23.6 M3.3,28.9 L3.4,29.1 L3.7,29.7 C4.3,30.9 5,31.8 4.5,33.5 C4.3,34.4 4.1,35.2 3.9,36.1 C3.8,35.9 3.6,35.7 3.5,35.5 L3.4,35.3 L3,34.9 L3,34.8 C2.6,34.2 2.2,33.7 2,33.1 L2,33 C1.8,32.5 1.8,31.8 2.1,30.9 C2.4,30 2.7,29.1 3.1,28.2 C3.1,28.4 3.2,28.7 3.3,28.9 M1.6,34.5 L1.8,34.8 L1.9,35 L2.1,35.3 C2.6,36 3.1,36.6 3.4,37.4 C3.5,37.7 3.5,38.1 3.5,38.5 L3.5,39 C3.4,39.9 3.3,40.8 3.3,41.7 C3,41.4 2.9,41.2 2.7,41 L2.6,40.9 L2.1,40.4 C1,39.3 0.3,38.7 0.6,36.7 C0.8,35.7 1,34.8 1.2,33.9 C1.3,34.1 1.4,34.3 1.6,34.5 M20.4,14.4 C20.2,14.3 20,14.3 19.8,14.2 L19.6,14.2 C19.4,14.1 19.1,14.1 18.9,14.1 L18.8,14.1 L20.9,12.6 C21.6,12.1 22.3,12 22.9,12.1 L23.1,12.1 C23.2,12.1 23.4,12.2 23.5,12.2 C23.7,12.3 23.9,12.3 24,12.4 L24.6,12.6 C25.1,12.8 25.5,13 26,13.2 C25.3,13.6 24.6,13.9 23.9,14.4 C23.4,14.7 22.9,14.9 22.5,14.9 C22,15 21.4,14.7 20.4,14.4 L20.4,14.4 Z M16.3,17.8 L15.9,17.7 L15,17.7 L14.9,17.7 C15.5,17.1 16.1,16.5 16.8,15.9 C17.4,15.4 18,15.2 18.5,15.1 C18.9,15.1 19.4,15.1 19.8,15.2 L20.5,15.4 L20.7,15.4 L21.1,15.5 L21.3,15.6 C21.5,15.7 21.8,15.7 22,15.8 C21.3,16.3 20.7,16.7 20.1,17.2 L20,17.3 C19.1,17.9 18.5,18 17.7,17.9 L16.6,17.7 L16.3,17.8 L16.3,17.8 Z M12.4,21.7 L12.2,21.7 C12,21.7 11.7,21.7 11.5,21.8 L11.4,21.8 C11.9,21.1 12.5,20.4 13,19.7 L13.3,19.4 L13.5,19.2 C13.6,19.1 13.7,19 13.8,19 L13.9,18.9 C14.2,18.7 14.5,18.6 14.8,18.6 C15.2,18.5 15.6,18.6 16.1,18.6 L16.5,18.6 L17.2,18.7 L17.3,18.7 C17.5,18.7 17.8,18.8 18,18.8 C17.4,19.3 16.9,19.9 16.3,20.5 C15.7,21.1 15.2,21.4 14.7,21.5 C14.2,21.6 13.6,21.6 12.8,21.6 C12.8,21.6 12.6,21.6 12.4,21.7 M9.9,26 L9.5,26.1 L9.2,26.1 C9,26.1 8.7,26.2 8.5,26.3 L8.4,26.3 C8.8,25.5 9.2,24.8 9.7,24 C9.9,23.7 10.1,23.5 10.2,23.3 C10.7,22.8 11.2,22.6 11.8,22.5 C12.2,22.4 12.6,22.4 13.1,22.4 L14.7,22.4 C14.2,23 13.7,23.7 13.3,24.3 C12.3,25.7 11.5,25.6 10,25.8 L9.9,26 L9.9,26 Z M22.9,11.1 C22.8,11.1 22.7,11.1 22.6,11 C22.6,10.9 22.7,10.8 22.7,10.7 L22.8,10.5 C23.2,9.5 24.2,8.5 25.6,7.9 L25.7,7.8 C26.3,7.5 27,7.4 27.6,7.3 C28.1,7.3 28.5,7.3 28.9,7.4 C29.3,7.5 29.6,7.6 29.8,7.7 C29.7,8 29.5,8.3 29.2,8.5 L28.3,9.4 C27.9,9.8 27.3,10.1 26.8,10.4 L26.7,10.5 C25.4,11.1 24.2,11.3 23.1,11.1 L22.9,11.1 Z M22.3,8.3 L22.1,9 C22.1,9.2 22,9.4 22,9.6 C22,9.7 21.9,9.9 21.9,10 L21.8,10.2 C21.6,10.8 21.2,11.3 20.4,11.8 C19.7,12.3 18.9,12.8 18.2,13.4 C18.2,13.1 18.3,12.9 18.3,12.6 L18.3,12.5 L18.4,11.8 C18.5,11.1 18.5,10.5 18.7,9.9 L18.7,9.7 C18.9,9.2 19.3,8.7 20.2,8.2 C21,7.7 21.9,7.2 22.7,6.8 C22.6,7.2 22.5,7.7 22.3,8.3 M17.5,10.5 L17.5,11.4 L17.4,12.4 C17.3,13.3 17.1,14.1 16.1,15.1 C15.4,15.7 14.8,16.3 14.2,17 L14.2,16.9 L14.2,15.3 C14.1,13.7 14,12.8 15.5,11.5 C16.2,10.9 17,10.3 17.8,9.8 C17.6,10 17.6,10.3 17.5,10.5 M13,14.3 L13,15.2 C13.1,16.6 13.3,17.6 12.1,19 C11.5,19.7 11,20.4 10.4,21.1 L10.4,21 C10.4,20.7 10.3,20.5 10.3,20.3 L10.3,20.1 L10.2,19.6 L10.2,19.5 C10.1,18.7 9.9,18.1 10,17.5 L10,17.4 C10.1,16.8 10.3,16.3 11,15.6 C11.7,14.9 12.3,14.2 13,13.5 L13,14.3 M9.1,18.6 L9.2,19 L9.3,19.3 L9.4,19.6 C9.6,20.5 9.8,21.2 9.7,22 C9.7,22.3 9.5,22.7 9.3,23.1 C9.2,23.2 9.2,23.4 9.1,23.5 C8.5,24.3 8,25 7.6,25.8 C7.5,25.5 7.5,25.3 7.4,25.1 L7.3,24.9 L7.1,24.3 C6.6,22.8 6.2,22 7.3,20.3 C7.8,19.5 8.4,18.7 9,18 C9,18.2 9.1,18.4 9.1,18.6 M0.7,40.4 L0.8,40.5 L1.3,41 C2,41.7 2.7,42.3 3,43.3 C3.1,43.6 3.2,44 3.2,44.5 C3.2,45.4 3.3,46.3 3.3,47.2 C3.1,47 2.9,46.9 2.7,46.7 L2.5,46.6 L2,46.1 C0.8,45.1 0,44.6 0,42.6 C0,41.6 0.1,40.7 0.2,39.7 C0.3,40 0.5,40.2 0.7,40.4 M0.6,46.2 L0.8,46.3 L1.4,46.7 L2.2,47.3 C2.8,48 3.4,48.6 3.7,50 C3.8,50.9 4,51.8 4.2,52.6 C4,52.4 3.8,52.3 3.5,52.2 L3.4,52.1 L2.8,51.8 C2.1,51.4 1.6,51.1 1.2,50.7 C0.8,50.3 0.5,49.7 0.4,48.7 C0.3,47.7 0.2,46.8 0.2,45.8 C0.2,45.9 0.4,46.1 0.6,46.2 M1.5,52.2 L2.1,52.5 L2.4,52.7 C3.2,53.1 3.9,53.5 4.4,54.3 L4.4,54.4 C4.5,54.5 4.5,54.7 4.6,54.8 L4.7,54.9 C4.8,55 4.8,55.2 4.9,55.3 C5.2,56.2 5.5,57 5.8,57.8 C5.6,57.7 5.3,57.6 5.1,57.5 L4.9,57.4 L4.3,57.2 C3.8,57 3.3,56.8 2.9,56.6 C2.2,56.2 1.7,55.7 1.3,54.4 C1.1,53.5 0.8,52.5 0.7,51.6 C0.9,51.8 1.1,51.9 1.4,52.1 L1.5,52.2 Z M3,57.8 L3.2,57.9 L3.9,58.2 L5.4,58.8 C6,59.1 6.6,59.6 7,60.6 C7.4,61.4 7.8,62.2 8.3,63 L8.2,63 C8,62.9 7.7,62.9 7.5,62.8 L7.2,62.7 L6.8,62.6 L6.6,62.5 C5.1,62.1 4.2,62 3.3,60.2 C2.9,59.3 2.6,58.4 2.3,57.5 C2.5,57.5 2.7,57.7 3,57.8 M5.4,63.1 L5.6,63.2 C5.8,63.2 6,63.3 6.2,63.3 L6.3,63.3 C7.6,63.6 8.7,63.7 9.7,65.2 C10.2,65.9 10.7,66.7 11.3,67.4 C11,67.4 10.8,67.3 10.5,67.3 L10.4,67.3 L9.7,67.2 C8,67.1 7.1,67.1 6,65.4 C5.5,64.6 5,63.7 4.6,62.9 C4.9,63 5.1,63.1 5.4,63.1 M8.5,68.1 L8.7,68.1 C8.9,68.1 9.2,68.1 9.4,68.2 C9.9,68.2 10.3,68.3 10.7,68.3 C11.4,68.4 12,68.6 12.6,69.1 L12.9,69.4 L13.1,69.6 C13.7,70.3 14.3,70.9 15,71.5 L12.6,71.5 C11.5,71.5 10.7,71.4 9.6,70.2 C9,69.5 8.4,68.7 7.8,67.9 C8,68 8.2,68.1 8.5,68.1 M12.3,72.6 L13.2,72.6 C14,72.6 14.7,72.5 15.4,72.6 C15.8,72.7 16.2,72.8 16.6,73.1 C16.7,73.2 16.9,73.3 17,73.4 C17.7,74 18.4,74.5 19.1,75 L19,75 C18.7,75 18.5,75.1 18.2,75.1 L18,75.1 L17.4,75.2 L17.3,75.2 C17,75.3 16.6,75.3 16.3,75.4 C15.8,75.5 15.3,75.5 14.8,75.4 C14.3,75.3 13.9,75 13.3,74.5 C12.6,73.8 11.9,73.2 11.2,72.5 C11.8,72.6 12.1,72.6 12.3,72.6 M16.7,76.5 L16.9,76.5 L17.5,76.4 L17.6,76.4 C19,76.1 19.9,75.7 21.5,76.7 C22.3,77.2 23,77.6 23.8,78 L23.7,78 C23.4,78.1 23.2,78.1 23,78.2 L22.8,78.3 L22.2,78.5 L21.3,78.8 C20.3,79.1 19.5,79.2 18.2,78.3 C17.4,77.8 16.6,77.2 15.9,76.6 C16.2,76.6 16.5,76.5 16.7,76.5 M21.7,79.7 L21.9,79.6 L22.6,79.4 C23.6,79 24.4,78.6 25.6,78.8 C25.9,78.9 26.2,78.9 26.6,79.1 C27.4,79.5 28.3,79.8 29.1,80.1 C28.9,80.2 28.6,80.3 28.4,80.4 L28.3,80.5 L27.7,80.8 L27.2,81 C26.5,81.4 25.9,81.7 25.2,81.7 C24.7,81.7 24.2,81.6 23.5,81.3 C22.6,80.9 21.8,80.4 20.9,79.9 C21.2,79.9 21.4,79.8 21.7,79.7 M27,82.2 L27.2,82.1 L27.8,81.8 C29,81.1 29.9,80.5 31.6,81 C32.5,81.2 33.3,81.4 34.2,81.6 C34,81.7 33.8,81.9 33.6,82 L33.4,82.2 L33.1,82.4 L32.9,82.5 C31.6,83.4 30.9,84 29,83.5 C28.1,83.2 27.2,82.9 26.3,82.5 C26.5,82.4 26.8,82.3 27,82.2 M32.6,83.9 L32.8,83.7 L33.1,83.5 L33.4,83.3 L33.9,82.9 C34.1,82.8 34.2,82.6 34.4,82.5 C34.6,82.4 34.7,82.3 34.9,82.2 L35.8,81.9 L37,81.9 C37.9,82 38.8,82.1 39.7,82.1 C39.2,82.5 38.8,82.9 38.5,83.3 C37.4,84.4 36.8,85.1 34.8,84.8 C33.8,84.6 32.9,84.5 32,84.2 C32.2,84.2 32.4,84.1 32.6,83.9 M50.5,4 C50.5,3.6 50.2,3.3 49.8,3.3 C49.3,3.3 49,3.6 49,4 C49,4.2 49.1,4.4 49.3,4.6 L46.5,8 L45.9,2.9 C46.3,2.9 46.6,2.6 46.6,2.2 C46.6,1.8 46.3,1.5 45.9,1.5 C45.5,1.5 45.2,1.8 45.2,2.2 C45.2,2.5 45.4,2.8 45.7,2.9 L43.6,7.2 L41.8,1.6 C42.2,1.5 42.4,1.2 42.4,0.8 C42.4,0.4 42,0 41.6,0 C41.2,0 40.8,0.4 40.8,0.8 C40.8,1.2 41.1,1.5 41.4,1.6 L39.6,7.2 L37.5,2.9 C37.8,2.8 38,2.5 38,2.2 C38,1.8 37.7,1.5 37.3,1.5 C36.9,1.5 36.6,1.8 36.6,2.2 C36.6,2.6 36.9,2.9 37.3,2.9 L36.7,8 L34,4.6 C34.2,4.5 34.3,4.3 34.3,4 C34.3,3.6 34,3.3 33.6,3.3 C33.2,3.3 32.9,3.6 32.9,4 C32.9,4.4 33.2,4.7 33.6,4.7 L33.8,4.7 C34.1,5.7 34.7,7.7 35.1,10.1 C37.2,9.6 39.4,9.3 41.7,9.3 C44,9.3 46.2,9.6 48.3,10.1 C48.7,7.7 49.2,5.7 49.5,4.7 L49.7,4.7 C50.1,4.7 50.5,4.4 50.5,4" id="Shape" fill="#3FA535" fill-rule="nonzero"></path>
            <path d="M69.3,53.8 C69.9,53.8 70.4,53.3 70.4,52.7 C70.4,52.1 69.9,51.6 69.3,51.6 C68.7,51.6 68.2,52.1 68.2,52.7 C68.2,53.3 68.7,53.8 69.3,53.8 M14,53.8 C14.6,53.8 15.1,53.3 15.1,52.7 C15.1,52.1 14.6,51.6 14,51.6 C13.4,51.6 12.9,52.1 12.9,52.7 C12.9,53.3 13.4,53.8 14,53.8 M68.1,44.5 C68.1,45.3 68.4,45.9 68.8,46.4 L70.7,46.4 L70.7,44.5 L69.9,44.5 L69.9,45.5 L69.3,45.5 C69.1,45.3 69,44.9 69,44.6 C69,43.8 69.6,43.3 70.4,43.3 C71.2,43.3 71.8,43.9 71.8,44.6 C71.8,45.1 71.6,45.4 71.3,45.8 L72,46.4 C72.4,45.9 72.6,45.5 72.6,44.7 C72.6,43.4 71.6,42.4 70.3,42.4 C69.1,42.2 68.1,43.1 68.1,44.5 M67.4,36.9 L67.6,37.8 L70.4,37.3 L68,40 L68.2,40.8 L72.5,39.9 L72.3,39 L69.6,39.5 L71.9,36.9 L71.7,36 L67.4,36.9 L67.4,36.9 Z M66.5,34.5 L66.8,35.4 L71,33.9 L70.7,33 L66.5,34.5 Z M66.9,29.7 L68,29.2 L68.4,30.1 C68.6,30.5 68.5,30.9 68.2,31.1 C67.9,31.3 67.5,31.1 67.3,30.7 L66.9,29.7 L66.9,29.7 Z M64.4,29.8 L64.8,30.7 L66.1,30.1 L66.4,30.8 L65.5,32.3 L66,33.3 L67,31.6 C67.4,32 68,32.2 68.6,31.9 C69,31.7 69.2,31.5 69.3,31.1 C69.4,30.7 69.4,30.3 69.1,29.7 L68.2,27.9 L64.4,29.8 L64.4,29.8 Z M62.3,27.1 C63,28 64,28.2 65.1,27.4 L67.1,25.9 L66.5,25.1 L64.5,26.6 C63.9,27 63.4,27 63.1,26.5 C62.7,26 62.8,25.5 63.4,25.1 L65.4,23.6 L64.8,22.8 L62.8,24.3 C61.7,25.2 61.6,26.2 62.3,27.1 M58.6,23.2 L59.3,23.8 L61.6,21.2 L62.6,22.1 L63.2,21.4 L60.5,19 L59.9,19.7 L60.9,20.6 L58.6,23.2 Z M55.2,20.9 C55.9,21.3 56.5,21.3 57.2,21.1 L57,20.2 C56.5,20.3 56.2,20.3 55.7,20.1 C55,19.7 54.9,18.9 55.3,18.3 C55.7,17.6 56.5,17.4 57.1,17.8 C57.5,18 57.7,18.4 57.8,18.8 L58.7,18.5 C58.6,17.9 58.3,17.5 57.5,17 C56.3,16.3 55,16.7 54.4,17.8 C53.7,18.9 54,20.3 55.2,20.9 M50.4,16.7 L51.4,15.5 L51.5,17 L50.4,16.7 Z M48.2,17.9 L49.1,18.2 L49.8,17.4 L51.6,18 L51.7,19.1 L52.7,19.4 L52.4,14.6 L51.6,14.3 L48.2,17.9 L48.2,17.9 Z M44.5,17.3 L45.5,17.4 L45.7,15.7 L47.8,16 L47.9,15.1 L45.8,14.8 L45.9,13.9 L48.3,14.2 L48.4,13.3 L45.1,12.8 L44.5,17.3 L44.5,17.3 Z M41,17.2 C42.2,17.2 42.9,16.5 42.9,15.2 L42.9,12.7 L41.9,12.7 L41.9,15.2 C41.9,15.9 41.5,16.3 40.9,16.3 C40.3,16.3 39.9,15.9 39.9,15.2 L39.9,12.7 L38.9,12.7 L38.9,15.2 C39.1,16.5 39.8,17.2 41,17.2 M33.8,18.2 L34.7,18 L34.2,15.2 L36.8,17.5 L37.6,17.3 L36.7,13 L35.8,13.2 L36.3,15.9 L33.7,13.6 L32.8,13.8 L33.8,18.2 Z M29.2,18.2 L29.1,16.7 L30.2,17.7 L29.2,18.2 Z M28.4,20.6 L29.3,20.2 L29.2,19.1 L30.9,18.3 L31.7,19 L32.6,18.6 L29,15.4 L28.2,15.8 L28.4,20.6 L28.4,20.6 Z M23.8,23.9 L24.6,23.3 L22.9,21 L25,21.7 L24.9,19.4 L26.6,21.7 L27.4,21.1 L24.7,17.6 L23.9,18.2 L24.1,20.4 L22,19.7 L21.2,20.3 L23.8,23.9 Z M18.7,28.6 L16.5,27 L16.9,26.4 C17.4,25.8 18.1,25.6 18.8,26.1 C19.4,26.6 19.6,27.3 19.1,28 L18.7,28.6 L18.7,28.6 Z M18.8,29.9 L19.8,28.5 C20.6,27.4 20.4,26 19.4,25.3 C18.4,24.6 17.1,24.8 16.2,25.9 L15.2,27.3 L18.8,29.9 L18.8,29.9 Z M16.5,32.9 C16.2,33.6 15.4,33.9 14.7,33.5 C14,33.2 13.7,32.4 14,31.7 C14.3,31 15.1,30.7 15.8,31.1 C16.5,31.4 16.8,32.2 16.5,32.9 M17.3,33.3 C17.9,32.1 17.4,30.7 16.2,30.2 C15.1,29.7 13.7,30.1 13.2,31.4 C12.6,32.6 13.1,34 14.3,34.5 C15.4,35 16.7,34.5 17.3,33.3 M14.7,38.7 C14.5,39.5 13.8,39.9 13.1,39.7 C12.4,39.6 11.9,38.9 12,38.1 C12.2,37.3 12.9,36.9 13.6,37.1 C14.4,37.3 14.9,37.9 14.7,38.7 M15.6,38.9 C15.9,37.6 15,36.4 13.8,36.1 C12.6,35.9 11.4,36.6 11.1,38 C10.8,39.3 11.7,40.5 12.9,40.8 C14.1,41 15.3,40.2 15.6,38.9 M15.1,44.3 C15.1,43.5 14.8,42.9 14.4,42.4 L12.5,42.4 L12.5,44.3 L13.3,44.3 L13.3,43.3 L13.9,43.3 C14.1,43.5 14.2,43.9 14.2,44.2 C14.2,45 13.6,45.5 12.8,45.5 C12,45.5 11.4,44.9 11.4,44.2 C11.4,43.7 11.6,43.4 11.9,43 L11.2,42.4 C10.8,42.9 10.6,43.3 10.6,44.1 C10.6,45.4 11.6,46.4 12.9,46.4 C14.2,46.6 15.1,45.7 15.1,44.3 M66.4,62.3 L68.3,59.5 L67.6,59 L66.2,61 L65.4,60.5 L66.6,58.7 L66,58.2 L64.8,60 L64,59.5 L65.4,57.5 L64.6,57 L62.7,59.8 L66.4,62.3 L66.4,62.3 Z M64.3,65 C64.9,64.4 65,63.8 65,63.1 L64.1,63.1 C64.1,63.6 64,63.9 63.7,64.3 C63.2,64.9 62.3,64.8 61.8,64.3 C61.2,63.8 61.1,62.9 61.7,62.4 C62,62.1 62.4,61.9 62.9,61.9 L62.8,60.9 C62.2,60.9 61.7,61.1 61.1,61.7 C60.2,62.7 60.3,64.1 61.2,65 C62,66 63.4,65.9 64.3,65 M60.6,68.2 L61.4,67.6 L58.6,64.1 L57.8,64.7 L60.6,68.2 Z M57.2,70.6 L58,70 L56.1,67 L57.3,66.3 L56.8,65.5 L53.6,67.5 L54.1,68.3 L55.3,67.6 L57.2,70.6 Z M52.9,72.6 C53.7,72.3 54.1,71.8 54.3,71.2 L53.5,70.8 C53.3,71.2 53.1,71.5 52.6,71.7 C51.9,72 51.1,71.6 50.9,70.9 C50.6,70.2 50.9,69.4 51.6,69.1 C52,68.9 52.4,69 52.9,69.1 L53.2,68.2 C52.7,68 52.1,67.9 51.3,68.2 C50,68.7 49.5,70.1 50,71.2 C50.4,72.6 51.7,73.1 52.9,72.6 M46.4,72.4 L46.7,70.9 L47.6,72.2 L46.4,72.4 L46.4,72.4 Z M45,74.6 L46,74.4 L46.2,73.3 L48.1,73 L48.7,73.9 L49.7,73.7 L47,69.6 L46.1,69.8 L45,74.6 L45,74.6 Z M41,72.4 L41,71.1 L42,71.1 C42.5,71.1 42.8,71.3 42.8,71.7 C42.8,72.1 42.5,72.3 42,72.3 L41,72.4 L41,72.4 Z M40.1,74.7 L41.1,74.7 L41.1,73.3 L41.9,73.3 L42.9,74.7 L44.1,74.7 L43,73.1 C43.6,72.9 44,72.4 44,71.7 C44,71.3 43.9,70.9 43.6,70.7 C43.3,70.4 42.9,70.2 42.3,70.3 L40.2,70.3 L40.1,74.7 Z M36.1,72 L36.3,70.6 L37.1,70.7 C37.6,70.8 37.9,71 37.8,71.5 C37.7,71.9 37.4,72.1 36.9,72.1 L36.1,72 L36.1,72 Z M34.8,74 L35.8,74.1 L36,72.8 L36.7,72.9 C37.7,73 38.6,72.6 38.7,71.6 C38.8,70.7 38.3,70 37.2,69.8 L35.4,69.5 L34.8,74 L34.8,74 Z M28.3,70.8 L29.4,68.3 L30.1,68.6 C30.8,68.9 31.1,69.7 30.8,70.4 C30.5,71.1 29.8,71.4 29,71.1 L28.3,70.8 Z M27.1,71.2 L28.7,71.9 C30,72.5 31.3,71.9 31.8,70.8 C32.3,69.6 31.8,68.4 30.5,67.8 L28.9,67.1 L27.1,71.2 Z M24.2,68.4 C23.5,67.9 23.4,67.1 23.9,66.5 C24.3,65.9 25.1,65.7 25.8,66.1 C26.5,66.6 26.6,67.4 26.1,68 C25.7,68.6 24.9,68.8 24.2,68.4 M23.7,69.1 C24.8,69.9 26.3,69.6 27,68.5 C27.7,67.4 27.5,66 26.3,65.2 C25.2,64.4 23.7,64.7 23,65.8 C22.3,66.9 22.6,68.3 23.7,69.1 M19.8,64.6 C19.2,64 19.3,63.2 19.8,62.6 C20.3,62.1 21.2,62 21.7,62.6 C22.3,63.2 22.2,64 21.7,64.6 C21.2,65.1 20.4,65.1 19.8,64.6 M19.2,65.2 C20.2,66.2 21.6,66.2 22.5,65.3 C23.4,64.4 23.4,63 22.5,62 C21.5,61 20.1,61 19.2,61.9 C18.2,62.8 18.2,64.2 19.2,65.2 M14.9,59.5 L15.4,60.3 L16.9,59.3 L18.1,61.1 L18.9,60.6 L17.7,58.8 L18.5,58.3 L19.8,60.3 L20.6,59.8 L18.6,57 L14.9,59.5 L14.9,59.5 Z M37.2,22.2 C34.8,23.9 32.8,26.9 31.4,30.7 L24,30.7 C27.2,26.5 31.8,23.4 37.2,22.2 M59.2,30.8 L51.9,30.8 C50.5,27 48.5,24 46.1,22.3 C51.5,23.4 56.1,26.5 59.2,30.8 M46.1,64.7 C48.5,63 50.5,60 51.9,56.2 L59.2,56.2 C56.1,60.5 51.5,63.6 46.1,64.7 M29.3,44 C29.4,48 30,51.8 31,55.1 L23.3,55.1 C21.2,51.9 20,48.1 19.9,44 L29.3,44 Z M41.1,31.8 L41.1,42.9 L30.3,42.9 C30.4,38.8 31,35 32.1,31.8 L41.1,31.8 L41.1,31.8 Z M41.1,30.8 L32.5,30.8 C34.5,25.6 37.6,22.1 41.1,21.8 L41.1,30.8 Z M42.2,30.8 L42.2,21.8 C45.7,22.1 48.9,25.6 50.8,30.8 L42.2,30.8 Z M52.9,42.9 L42.2,42.9 L42.2,31.8 L51.2,31.8 C52.2,35.1 52.9,38.9 52.9,42.9 M42.2,55.1 L42.2,44 L53,44 C52.9,48.1 52.3,51.9 51.2,55.1 L42.2,55.1 Z M42.2,56.2 L50.8,56.2 C48.8,61.4 45.7,64.9 42.2,65.2 L42.2,56.2 Z M32.1,55.1 C31,51.9 30.4,48.1 30.3,44 L41.1,44 L41.1,55.1 L32.1,55.1 Z M41.1,56.2 L41.1,65.2 C37.6,64.9 34.4,61.4 32.5,56.2 L41.1,56.2 Z M59.9,55.1 L52.2,55.1 C53.3,51.8 53.9,48.1 53.9,44 L63.2,44 C63.2,48.1 62,51.9 59.9,55.1 M63.3,42.9 L54,42.9 C53.9,38.9 53.3,35.1 52.3,31.8 L60,31.8 C62,35.1 63.2,38.9 63.3,42.9 M23.3,31.8 L31,31.8 C29.9,35.1 29.3,38.8 29.3,42.9 L20,42.9 C20,38.9 21.3,35.1 23.3,31.8 M24,56.2 L31.3,56.2 C32.7,60 34.7,63 37.1,64.7 C31.8,63.6 27.2,60.5 24,56.2 M41.6,66.3 C49.5,66.3 56.5,62.2 60.6,56.1 C60.7,56 60.7,56 60.7,55.9 C63,52.3 64.4,48.1 64.4,43.5 C64.4,38.9 63.1,34.7 60.7,31.1 C60.7,31 60.6,31 60.6,30.9 C56.5,24.7 49.5,20.7 41.6,20.7 C33.7,20.7 26.7,24.8 22.6,30.9 C22.5,31 22.5,31 22.5,31.1 C20.2,34.7 18.8,38.9 18.8,43.5 C18.8,48.1 20.1,52.3 22.5,55.9 C22.5,56 22.6,56 22.6,56.1 C26.7,62.2 33.7,66.3 41.6,66.3" id="Shape" fill="#000000" fill-rule="nonzero"></path>
            <path d="M39.2,65.5 C38.6,60.3 36.3,55.7 32.9,52.3 C29.5,48.9 24.8,46.5 19.7,46 C20.3,51.2 22.6,55.8 26,59.2 C29.5,62.6 34.1,64.9 39.2,65.5 M41.6,57.1 L40.1,54.1 C38.3,50.9 37.4,47.2 37.4,43.4 C37.4,38.7 38.9,34.1 41.7,30.3 C44.5,34.1 46,38.7 46,43.4 C46,47.1 45.1,50.8 43.3,54.1 C42.6,55.1 42.1,56.1 41.6,57.1 M50.4,52.2 C46.9,55.7 44.6,60.3 44.1,65.4 C49.3,64.8 53.9,62.5 57.3,59.1 C60.8,55.6 63.1,51 63.6,45.9 C58.5,46.4 53.8,48.7 50.4,52.2" id="Shape" fill="#52AE32" fill-rule="nonzero"></path>
            <path d="M39.2,65.5 C38.6,60.3 36.3,55.7 32.9,52.3 C29.5,48.9 24.8,46.5 19.7,46 C20.3,51.2 22.6,55.8 26,59.2 C29.5,62.6 34.1,64.9 39.2,65.5 Z M41.6,57.1 L40.1,54.1 C38.3,50.9 37.4,47.2 37.4,43.4 C37.4,38.7 38.9,34.1 41.7,30.3 C44.5,34.1 46,38.7 46,43.4 C46,47.1 45.1,50.8 43.3,54.1 C42.6,55.1 42.1,56.1 41.6,57.1 L41.6,57.1 Z M50.4,52.2 C46.9,55.7 44.6,60.3 44.1,65.4 C49.3,64.8 53.9,62.5 57.3,59.1 C60.8,55.6 63.1,51 63.6,45.9 C58.5,46.4 53.8,48.7 50.4,52.2 Z" id="Shape" stroke="#000000"></path>
        </g>
    </g>
</svg>