<?xml version="1.0" encoding="UTF-8"?>
<svg width="26px" height="17px" viewBox="0 0 26 17" version="1.1" xmlns="http://www.w3.org/2000/svg" xmlns:xlink="http://www.w3.org/1999/xlink">
    <!-- Generator: Sketch 52.4 (67378) - http://www.bohemiancoding.com/sketch -->
    <title>Path</title>
    <desc>Created with Sketch.</desc>
    <g id="Symbols" stroke="none" stroke-width="1" fill="none" fill-rule="evenodd">
        <g id="Botschafter-Content" transform="translate(-1.000000, -119.000000)" fill="#9F1E3A" stroke="#9F1E3A">
            <g id="Group-4">
                <g id="Group" transform="translate(2.000000, 57.000000)">
                    <path d="M24.6698402,75.3717247 C24.6267513,75.3694434 21.2604265,72.8850654 18.8566783,70.5094312 C12.4048765,64.2083732 7.45887986,62.8532579 4.25336927,66.0212772 C6.71174813,68.5444379 12.9488746,72.8447617 16.8376529,73.9998796 C19.1005926,74.6721141 20.5256059,75.0120336 21.9244581,75.1975825 C14.7324496,74.6363732 10.6536182,73.2516005 6.6825092,70.7162725 C5.38060715,69.8851048 4.48574186,69.2752268 3.82555749,68.8007083 C2.09815199,67.3877991 0.30380473,65.1155856 1.11326156,63.8387963 C1.83730992,62.696606 -0.401776934,62.5863413 0.0645071322,64.3551393 C0.327657546,65.3528449 1.28869517,66.8296316 2.08276308,67.9398831 C1.01477251,74.8485377 7.53967166,76.9846313 10.01267,77.6614285 C17.1939063,79.4279452 24.6698402,75.3717247 24.6698402,75.3717247 Z" id="Path"></path>
                </g>
            </g>
        </g>
    </g>
</svg>