<?xml version="1.0" encoding="UTF-8"?>
<svg
    version="1.1"
        id="Layer_1"
        xmlns="http://www.w3.org/2000/svg"
        xmlns:xlink="http://www.w3.org/1999/xlink"
        x="0px"
        y="0px"
        width="176px"
        height="46px"
        viewBox="0 0 176 46"
        style="enable-background: new 0 0 176 46"
        xml:space="preserve"
      >
        <style type="text/css">
          .st0 {
            fill: #4a3728;
          }
        </style>
        <g>
          <path
            class="st0"
            d="M62.2,37.1v-7.6c0-1.2-0.2-2.4-0.7-3.5c-0.5-1.1-1.1-2-1.9-2.8c-0.8-0.8-1.7-1.4-2.8-1.9
    c-1.1-0.5-2.2-0.7-3.5-0.7c-1.2,0-2.4,0.2-3.4,0.7c-1.1,0.5-2,1.1-2.8,1.9c-0.8,0.8-1.5,1.7-1.9,2.8c-0.5,1.1-0.7,2.2-0.7,3.5
    c0,1.2,0.2,2.4,0.7,3.4c0.5,1.1,1.1,2,1.9,2.8c0.8,0.8,1.8,1.5,2.8,1.9c1.1,0.5,2.2,0.7,3.4,0.7h2.8v-3.5h-2.8
    c-0.7,0-1.4-0.1-2.1-0.4c-0.7-0.3-1.2-0.7-1.7-1.1c-0.5-0.5-0.9-1.1-1.1-1.7c-0.3-0.7-0.4-1.4-0.4-2.1c0-0.7,0.1-1.4,0.4-2.1
    c0.3-0.6,0.7-1.2,1.1-1.7c0.5-0.5,1.1-0.9,1.7-1.1c0.7-0.3,1.4-0.4,2.1-0.4c0.7,0,1.4,0.1,2.1,0.4c0.7,0.3,1.2,0.7,1.7,1.1
    c0.5,0.5,0.9,1.1,1.1,1.7c0.3,0.6,0.4,1.3,0.4,2.1l0,8.4c0,0,0,0-0.1,0.6c-0.2,0.8-0.9,2.2-1.7,2.8c-1.1,0.6-2.1,0.9-3.3,0.9h-1.5
    v3.4h1.2c1.2,0,2.8-0.1,3.9-0.6c1.1-0.5,1.9-0.9,2.7-1.7c0.8-0.8,1.1-1.3,1.6-2.4C61.9,39.8,62.2,38.3,62.2,37.1L62.2,37.1z
     M39.8,38.4h3.5v-8.9c0-1.2-0.2-2.4-0.7-3.5c-0.5-1.1-1.1-2-1.9-2.8c-0.8-0.8-1.8-1.4-2.8-1.9c-1.1-0.5-2.2-0.7-3.5-0.7
    c-1.2,0-2.4,0.2-3.4,0.7c-1.1,0.5-2,1.1-2.8,1.9c-0.8,0.8-1.4,1.7-1.9,2.8c-0.5,1.1-0.7,2.2-0.7,3.5v8.9h3.5v-8.9
    c0-0.7,0.1-1.4,0.4-2.1c0.3-0.6,0.7-1.2,1.1-1.7c0.5-0.5,1.1-0.9,1.7-1.1c0.6-0.3,1.3-0.4,2.1-0.4c0.7,0,1.4,0.1,2.1,0.4
    c0.7,0.3,1.2,0.7,1.7,1.1c0.5,0.5,0.9,1.1,1.1,1.7c0.3,0.6,0.4,1.3,0.4,2.1V38.4L39.8,38.4z M20,38.4h3.5V20.6H20V38.4L20,38.4z
     M14.2,38.4h3.5v-1.8c0-1.4-0.3-2.8-1-4c-0.6-1.2-1.5-2.3-2.6-3.1c1.1-0.8,2-1.8,2.6-3.1c0.6-1.2,1-2.6,1-4v-1.7h-3.5v1.7
    c0,0.7-0.1,1.4-0.4,2.1c-0.3,0.7-0.7,1.2-1.1,1.7c-0.5,0.5-1.1,0.9-1.7,1.1c-0.6,0.3-1.3,0.4-2.1,0.4c-1,0-2,0.2-2.9,0.5
    c-0.9,0.3-1.7,0.8-2.5,1.3V14.7H0v21.9v1.8h3.5v-1.8c0-0.7,0.1-1.4,0.4-2.1c0.3-0.6,0.7-1.2,1.1-1.7c0.5-0.5,1.1-0.9,1.7-1.1
    c0.7-0.3,1.4-0.4,2.1-0.4c0.7,0,1.4,0.1,2.1,0.4c0.6,0.3,1.2,0.7,1.7,1.1c0.5,0.5,0.9,1.1,1.1,1.7c0.3,0.6,0.4,1.3,0.4,2.1V38.4
    L14.2,38.4z"
          ></path>
          <g>
            <defs>
              <path
                id="SVGID_1_"
                d="M158.9,16.6C158.8,16.6,158.8,16.6,158.9,16.6 M142.2,20.7c-1.2,0-2.4,0.2-3.4,0.7c-1.1,0.5-2,1.1-2.8,1.9
        c-0.8,0.8-1.5,1.7-1.9,2.8c-0.5,1.1-0.7,2.2-0.7,3.5v8.9h3.6v-8.9c0-0.7,0.1-1.4,0.4-2.1c0.3-0.6,0.7-1.2,1.1-1.7
        c0.5-0.5,1.1-0.9,1.7-1.1c0.6-0.3,1.3-0.4,2.1-0.4h1.2v-3.5H142.2L142.2,20.7z M130.8,33.1c0.5-1.1,0.7-2.2,0.7-3.4v-8.9H128v8.9
        c0,0.7-0.1,1.4-0.4,2.1c-0.3,0.7-0.7,1.2-1.1,1.7c-0.5,0.5-1.1,0.9-1.7,1.1c-0.7,0.3-1.4,0.4-2.1,0.4c-0.7,0-1.4-0.1-2.1-0.4
        c-0.6-0.3-1.2-0.7-1.7-1.1c-0.5-0.5-0.9-1.1-1.1-1.7c-0.3-0.7-0.4-1.4-0.4-2.1v-8.9h-2.5v0h-8.4v-6h-3.5v14.8
        c0,1.2,0.2,2.4,0.7,3.4c0.5,1.1,1.1,2,1.9,2.8c0.8,0.8,1.8,1.5,2.8,1.9c1.1,0.5,2.2,0.7,3.4,0.7h0.7V35h-0.7
        c-0.7,0-1.4-0.1-2.1-0.4c-0.7-0.3-1.2-0.7-1.7-1.1c-0.5-0.5-0.9-1.1-1.1-1.7c-0.3-0.7-0.4-1.4-0.4-2.1v-5.3h7.4v5.3
        c0,1.2,0.2,2.4,0.7,3.4c0.5,1.1,1.1,2,1.9,2.8c0.8,0.8,1.7,1.5,2.8,1.9c1.1,0.5,2.2,0.7,3.4,0.7c1.2,0,2.4-0.2,3.5-0.7
        c1.1-0.5,2-1.1,2.8-1.9C129.7,35.1,130.3,34.2,130.8,33.1L130.8,33.1z M97.4,38.4h3.5v-8.9c0-1.2-0.2-2.4-0.7-3.5
        c-0.5-1.1-1.1-2-1.9-2.8c-0.8-0.8-1.7-1.4-2.8-1.9c-1.1-0.5-2.2-0.7-3.5-0.7c-1.2,0-2.4,0.2-3.4,0.7c-1.1,0.5-2,1.1-2.8,1.9
        C85,24,84.4,25,83.9,26c-0.5,1.1-0.7,2.2-0.7,3.5c0,1.2,0.2,2.4,0.7,3.4c0.5,1.1,1.1,2,1.9,2.8c0.8,0.8,1.8,1.5,2.8,1.9
        c1.1,0.5,2.2,0.7,3.4,0.7h2.8v-3.5h-2.8c-0.7,0-1.4-0.1-2.1-0.4c-0.7-0.3-1.2-0.7-1.7-1.1c-0.5-0.5-0.9-1.1-1.1-1.7
        c-0.3-0.7-0.4-1.4-0.4-2.1c0-0.7,0.1-1.4,0.4-2.1c0.3-0.6,0.7-1.2,1.1-1.7c0.5-0.5,1.1-0.9,1.7-1.1c0.7-0.3,1.4-0.4,2.1-0.4
        c0.7,0,1.4,0.1,2.1,0.4c0.6,0.3,1.2,0.7,1.7,1.1c0.5,0.5,0.9,1.1,1.1,1.7c0.3,0.6,0.4,1.3,0.4,2.1v4.7h0V38.4L97.4,38.4z
         M78.3,38.4h3.5v-8.9c0-1.2-0.2-2.4-0.7-3.5c-0.5-1.1-1.1-2-1.9-2.8c-0.8-0.8-1.8-1.4-2.8-1.9c-1.1-0.5-2.2-0.7-3.5-0.7
        c-1.2,0-2.4,0.2-3.4,0.7c-1.1,0.5-2,1.1-2.8,1.9c-0.8,0.8-1.4,1.7-1.9,2.8c-0.5,1.1-0.7,2.2-0.7,3.5v8.9h3.5v-8.9
        c0-0.7,0.1-1.4,0.4-2.1c0.3-0.6,0.7-1.2,1.1-1.7c0.5-0.5,1.1-0.9,1.7-1.1c0.6-0.3,1.3-0.4,2.1-0.4c0.7,0,1.4,0.1,2.1,0.4
        c0.7,0.3,1.2,0.7,1.7,1.1c0.5,0.5,0.9,1.1,1.1,1.7c0.3,0.6,0.4,1.3,0.4,2.1V38.4L78.3,38.4z M143.8,30.1c-1.5,1.4-2.2,3-2.4,4.3
        c-0.2,1.5,1.7,1.3,0.9,0.4c-0.8-1,0.3-3.1,1.6-4.2c0.6,4.3,4.3,7.6,8.8,7.6c3.5,0,6.5-2,8-5c0,0-2.6-1.4-2.6-1.4
        c-0.9,1.9-3,3.3-5.4,3.3c-2.8,0-5.2-2-5.8-4.7c0.4,0.1,1,0.3,1.4,0.4c4.1,0.8,7.5-0.4,9.4-1.6c3.2-1.9,4.6-5,4.6-5
        c-2.3-2.1-5.7-4.2-10-3.8c-4.2,0.2-7.6,3.3-8.4,7.3c3.3-1.8,8.2-3.6,15.2-3.3c-4.3,0.6-8.4,1.9-10.8,2.9
        C146,28.3,144.6,29.4,143.8,30.1L143.8,30.1z"
              ></path>
            </defs>
            <use
              xlink:href="#SVGID_1_"
              style="overflow: visible; fill: #b23e2d"
            ></use>
            <clipPath id="SVGID_2_">
              <use xlink:href="#SVGID_1_" style="overflow: visible"></use>
            </clipPath>
          </g>
        </g>
      </svg>